<?xml version="1.0" encoding="UTF-8" standalone="no"?>
<!-- Created with Inkscape (http://www.inkscape.org/) -->

<svg
   xmlns:dc="http://purl.org/dc/elements/1.1/"
   xmlns:cc="http://creativecommons.org/ns#"
   xmlns:rdf="http://www.w3.org/1999/02/22-rdf-syntax-ns#"
   xmlns:svg="http://www.w3.org/2000/svg"
   xmlns="http://www.w3.org/2000/svg"
   xmlns:xlink="http://www.w3.org/1999/xlink"
   xmlns:sodipodi="http://sodipodi.sourceforge.net/DTD/sodipodi-0.dtd"
   xmlns:inkscape="http://www.inkscape.org/namespaces/inkscape"
   width="237.72491mm"
   height="194.10143mm"
   viewBox="0 0 842.33243 687.76095"
   id="svg2"
   version="1.1"
   inkscape:version="0.91 r13725"
   sodipodi:docname="components.svg">
  <defs
     id="defs4">
    <marker
       inkscape:stockid="Arrow1Lend"
       orient="auto"
       refY="0"
       refX="0"
       id="marker9673"
       style="overflow:visible"
       inkscape:isstock="true">
      <path
         id="path9675"
         d="M 0,0 5,-5 -12.5,0 5,5 0,0 Z"
         style="fill:#000000;fill-opacity:1;fill-rule:evenodd;stroke:#000000;stroke-width:1pt;stroke-opacity:1"
         transform="matrix(-0.8,0,0,-0.8,-10,0)"
         inkscape:connector-curvature="0" />
    </marker>
    <marker
       inkscape:isstock="true"
       style="overflow:visible"
       id="marker9260"
       refX="0"
       refY="0"
       orient="auto"
       inkscape:stockid="Arrow1Lend"
       inkscape:collect="always">
      <path
         inkscape:connector-curvature="0"
         transform="matrix(-0.8,0,0,-0.8,-10,0)"
         style="fill:#000000;fill-opacity:1;fill-rule:evenodd;stroke:#000000;stroke-width:1pt;stroke-opacity:1"
         d="M 0,0 5,-5 -12.5,0 5,5 0,0 Z"
         id="path9262" />
    </marker>
    <marker
       inkscape:isstock="true"
       style="overflow:visible"
       id="marker8770"
       refX="0"
       refY="0"
       orient="auto"
       inkscape:stockid="Arrow1Lend">
      <path
         transform="matrix(-0.8,0,0,-0.8,-10,0)"
         style="fill:#000000;fill-opacity:1;fill-rule:evenodd;stroke:#000000;stroke-width:1pt;stroke-opacity:1"
         d="M 0,0 5,-5 -12.5,0 5,5 0,0 Z"
         id="path8772"
         inkscape:connector-curvature="0" />
    </marker>
    <marker
       inkscape:stockid="Arrow1Lend"
       orient="auto"
       refY="0"
       refX="0"
       id="marker6909"
       style="overflow:visible"
       inkscape:isstock="true"
       inkscape:collect="always">
      <path
         inkscape:connector-curvature="0"
         id="path6911"
         d="M 0,0 5,-5 -12.5,0 5,5 0,0 Z"
         style="fill:#000000;fill-opacity:1;fill-rule:evenodd;stroke:#000000;stroke-width:1pt;stroke-opacity:1"
         transform="matrix(-0.8,0,0,-0.8,-10,0)" />
    </marker>
    <marker
       inkscape:isstock="true"
       style="overflow:visible"
       id="marker6837"
       refX="0"
       refY="0"
       orient="auto"
       inkscape:stockid="Arrow1Lend"
       inkscape:collect="always">
      <path
         transform="matrix(-0.8,0,0,-0.8,-10,0)"
         style="fill:#000000;fill-opacity:1;fill-rule:evenodd;stroke:#000000;stroke-width:1pt;stroke-opacity:1"
         d="M 0,0 5,-5 -12.5,0 5,5 0,0 Z"
         id="path6839"
         inkscape:connector-curvature="0" />
    </marker>
    <marker
       inkscape:isstock="true"
       style="overflow:visible"
       id="marker6785"
       refX="0"
       refY="0"
       orient="auto"
       inkscape:stockid="Arrow1Lend">
      <path
         transform="matrix(-0.8,0,0,-0.8,-10,0)"
         style="fill:#000000;fill-opacity:1;fill-rule:evenodd;stroke:#000000;stroke-width:1pt;stroke-opacity:1"
         d="M 0,0 5,-5 -12.5,0 5,5 0,0 Z"
         id="path6787"
         inkscape:connector-curvature="0" />
    </marker>
    <marker
       inkscape:stockid="Arrow1Lend"
       orient="auto"
       refY="0"
       refX="0"
       id="marker6723"
       style="overflow:visible"
       inkscape:isstock="true"
       inkscape:collect="always">
      <path
         id="path6725"
         d="M 0,0 5,-5 -12.5,0 5,5 0,0 Z"
         style="fill:#000000;fill-opacity:1;fill-rule:evenodd;stroke:#000000;stroke-width:1pt;stroke-opacity:1"
         transform="matrix(-0.8,0,0,-0.8,-10,0)"
         inkscape:connector-curvature="0" />
    </marker>
    <marker
       inkscape:stockid="Arrow1Lend"
       orient="auto"
       refY="0"
       refX="0"
       id="marker6683"
       style="overflow:visible"
       inkscape:isstock="true">
      <path
         id="path6685"
         d="M 0,0 5,-5 -12.5,0 5,5 0,0 Z"
         style="fill:#000000;fill-opacity:1;fill-rule:evenodd;stroke:#000000;stroke-width:1pt;stroke-opacity:1"
         transform="matrix(-0.8,0,0,-0.8,-10,0)"
         inkscape:connector-curvature="0" />
    </marker>
    <marker
       inkscape:stockid="Arrow1Lend"
       orient="auto"
       refY="0"
       refX="0"
       id="marker6649"
       style="overflow:visible"
       inkscape:isstock="true">
      <path
         id="path6651"
         d="M 0,0 5,-5 -12.5,0 5,5 0,0 Z"
         style="fill:#000000;fill-opacity:1;fill-rule:evenodd;stroke:#000000;stroke-width:1pt;stroke-opacity:1"
         transform="matrix(-0.8,0,0,-0.8,-10,0)"
         inkscape:connector-curvature="0" />
    </marker>
    <marker
       inkscape:isstock="true"
       style="overflow:visible"
       id="marker5889"
       refX="0"
       refY="0"
       orient="auto"
       inkscape:stockid="Arrow1Lend"
       inkscape:collect="always">
      <path
         transform="matrix(-0.8,0,0,-0.8,-10,0)"
         style="fill:#000000;fill-opacity:1;fill-rule:evenodd;stroke:#000000;stroke-width:1pt;stroke-opacity:1"
         d="M 0,0 5,-5 -12.5,0 5,5 0,0 Z"
         id="path5891"
         inkscape:connector-curvature="0" />
    </marker>
    <marker
       inkscape:stockid="Arrow1Lend"
       orient="auto"
       refY="0"
       refX="0"
       id="Arrow1Lend"
       style="overflow:visible"
       inkscape:isstock="true"
       inkscape:collect="always">
      <path
         id="path5558"
         d="M 0,0 5,-5 -12.5,0 5,5 0,0 Z"
         style="fill:#000000;fill-opacity:1;fill-rule:evenodd;stroke:#000000;stroke-width:1pt;stroke-opacity:1"
         transform="matrix(-0.8,0,0,-0.8,-10,0)"
         inkscape:connector-curvature="0" />
    </marker>
    <style
       id="style4239">.cls-1{fill:#759c3e;}.cls-2{fill:#b7ca9d;}.cls-3{fill:#4b612c;}.cls-4{fill:#3c4929;}</style>
    <style
       id="style4443">.cls-1{fill:#4b612c;}.cls-2{fill:#759c3e;}</style>
    <style
       id="style4616">.cls-1{fill:#9d5025;}.cls-2{fill:#f58536;}.cls-3{fill:#6b3a19;}.cls-4{fill:#fbbf93;}</style>
    <style
       id="style4748">.cls-1{fill:#fbbf93;}.cls-2{fill:#6b3a19;}.cls-3{fill:#9d5025;}.cls-4{fill:#f58536;}</style>
    <style
       id="style5084">.cls-1{fill:#4b612c;}.cls-2{fill:#759c3e;}.cls-3{fill:#fff;}</style>
    <style
       id="style9626">.cls-1{fill:#759c3e;}.cls-2{fill:#4b612c;}</style>
  </defs>
  <sodipodi:namedview
     id="base"
     pagecolor="#ffffff"
     bordercolor="#666666"
     borderopacity="1.0"
     inkscape:pageopacity="0.0"
     inkscape:pageshadow="2"
     inkscape:zoom="1"
     inkscape:cx="240.26145"
     inkscape:cy="245.38861"
     inkscape:document-units="px"
     inkscape:current-layer="layer1"
     showgrid="false"
     fit-margin-top="2"
     fit-margin-left="2"
     fit-margin-right="2"
     fit-margin-bottom="2"
     inkscape:window-width="1920"
     inkscape:window-height="1155"
     inkscape:window-x="0"
     inkscape:window-y="1"
     inkscape:window-maximized="1" />
  <metadata
     id="metadata7">
    <rdf:RDF>
      <cc:Work
         rdf:about="">
        <dc:format>image/svg+xml</dc:format>
        <dc:type
           rdf:resource="http://purl.org/dc/dcmitype/StillImage" />
        <dc:title />
      </cc:Work>
    </rdf:RDF>
  </metadata>
  <g
     inkscape:label="Layer 1"
     inkscape:groupmode="layer"
     id="layer1"
     transform="translate(-251.71598,30.010141)">
    <g
       id="cfn"
       transform="translate(384,-72)">
      <g
         transform="translate(50.989986,40.076443)"
         id="g4264">
        <polygon
           style="fill:#759c3e"
           class="cls-1"
           points="18.62,70.11 18.62,30.66 30.03,28.45 30.03,72.93 30.03,72.93 "
           id="polygon4243" />
        <polygon
           style="fill:#b7ca9d"
           class="cls-2"
           points="50.28,87.69 50.28,69.48 30.03,64.39 20.66,65.71 20.66,65.71 "
           id="polygon4245" />
        <polygon
           style="fill:#4b612c"
           class="cls-3"
           points="81.19,70.11 81.5,32.94 69.97,29.27 69.97,69.48 69.97,69.48 "
           id="polygon4247" />
        <polygon
           style="fill:#3c4929"
           class="cls-4"
           points="30.03,35.6 20.66,34.29 50.28,12.9 50.28,30.88 50.28,30.88 "
           id="polygon4249" />
        <polygon
           style="fill:#b7ca9d"
           class="cls-2"
           points="49.72,86.36 49.72,69.48 69.97,64.39 79.34,65.71 79.34,65.71 "
           id="polygon4251" />
        <polygon
           style="fill:#3c4929"
           class="cls-4"
           points="69.97,35.6 79.34,34.29 50,12.03 49.72,30.88 49.72,30.88 "
           id="polygon4253" />
        <path
           style="fill:#4b612c"
           inkscape:connector-curvature="0"
           class="cls-3"
           d="m 50,9 -33.68,17 0,48 L 50,91 58.57,50.56 Z m -9.88,62.55 -19.46,-5.84 0,-31.42 19.46,-5.84 z"
           id="path4255" />
        <path
           style="fill:#759c3e"
           inkscape:connector-curvature="0"
           class="cls-1"
           d="M 50,91 83.7,74 83.7,26 50,9 Z m 9.92,-62.55 19.46,5.84 0,31.42 -19.5,5.84 z"
           id="path4257" />
      </g>
      <text
         sodipodi:linespacing="125%"
         id="text5296"
         y="151.3622"
         x="51.759872"
         style="font-style:normal;font-weight:normal;font-size:12.5px;line-height:125%;font-family:Sans;letter-spacing:0px;word-spacing:0px;fill:#000000;fill-opacity:1;stroke:none;stroke-width:1px;stroke-linecap:butt;stroke-linejoin:miter;stroke-opacity:1"
         xml:space="preserve"><tspan
           y="151.3622"
           x="51.759872"
           id="tspan5298"
           sodipodi:role="line">CloudFormation</tspan></text>
    </g>
    <g
       id="authz">
      <rect
         y="42.1642"
         x="693.46179"
         height="343"
         width="393"
         id="rect5523"
         style="fill:none;fill-opacity:1;fill-rule:nonzero;stroke:#000000;stroke-width:0.99999994;stroke-linecap:round;stroke-miterlimit:4;stroke-dasharray:none;stroke-opacity:1" />
      <g
         transform="translate(645,-186)"
         id="g5319">
        <g
           id="g4476"
           transform="translate(51,178.3622)">
          <rect
             id="rect4447"
             height="14"
             width="65"
             y="26.24"
             x="17.5"
             class="cls-1"
             style="fill:#4b612c" />
          <rect
             id="rect4449"
             height="14"
             width="30.5"
             y="44.240002"
             x="17.5"
             class="cls-1"
             style="fill:#4b612c" />
          <rect
             id="rect4451"
             height="14"
             width="30.5"
             y="44.240002"
             x="51.869999"
             class="cls-1"
             style="fill:#4b612c" />
          <rect
             id="rect4453"
             height="14"
             width="19"
             y="62.240002"
             x="17.5"
             class="cls-1"
             style="fill:#4b612c" />
          <rect
             id="rect4455"
             height="14"
             width="19"
             y="62.240002"
             x="40.5"
             class="cls-1"
             style="fill:#4b612c" />
          <rect
             id="rect4457"
             height="14"
             width="19"
             y="62.240002"
             x="63.5"
             class="cls-1"
             style="fill:#4b612c" />
          <rect
             id="rect4459"
             height="14"
             width="65"
             y="23.76"
             x="17.5"
             class="cls-2"
             style="fill:#759c3e" />
          <rect
             id="rect4461"
             height="14"
             width="30.5"
             y="41.759998"
             x="17.5"
             class="cls-2"
             style="fill:#759c3e" />
          <rect
             id="rect4463"
             height="14"
             width="30.5"
             y="41.759998"
             x="51.869999"
             class="cls-2"
             style="fill:#759c3e" />
          <rect
             id="rect4465"
             height="14"
             width="19"
             y="59.759998"
             x="17.5"
             class="cls-2"
             style="fill:#759c3e" />
          <rect
             id="rect4467"
             height="14"
             width="19"
             y="59.759998"
             x="40.5"
             class="cls-2"
             style="fill:#759c3e" />
          <rect
             id="rect4469"
             height="14"
             width="19"
             y="59.759998"
             x="63.5"
             class="cls-2"
             style="fill:#759c3e" />
        </g>
        <text
           xml:space="preserve"
           style="font-style:normal;font-weight:normal;font-size:12.5px;line-height:125%;font-family:Sans;text-align:center;letter-spacing:0px;word-spacing:0px;text-anchor:middle;fill:#000000;fill-opacity:1;stroke:none;stroke-width:1px;stroke-linecap:butt;stroke-linejoin:miter;stroke-opacity:1"
           x="101.18616"
           y="272.36221"
           id="text5313"
           sodipodi:linespacing="125%"><tspan
             sodipodi:role="line"
             id="tspan5315"
             x="101.18616"
             y="272.36221">CloudFormation</tspan><tspan
             sodipodi:role="line"
             x="101.18616"
             y="287.98721"
             id="tspan5317">Stack</tspan></text>
      </g>
      <g
         transform="translate(242,-210)"
         id="g5341">
        <g
           id="g5221"
           transform="translate(481,324.3622)">
          <polygon
             id="polygon5223"
             points="67.54,54.47 56.81,55.15 74.52,79.23 84.1,55.15 84.1,55.15 "
             style="fill:#fad791" />
          <polygon
             id="polygon5225"
             points="67.54,45.86 56.81,45.18 74.52,21.1 84.1,45.18 84.1,45.18 "
             style="fill:#624a1e" />
          <polygon
             id="polygon5227"
             points="32.46,45.86 43.19,45.18 25.48,21.22 15.9,45.15 15.9,45.15 "
             style="fill:#624a1e" />
          <polygon
             id="polygon5229"
             points="32.46,54.47 43.19,55.15 25.48,79.25 15.9,55.15 15.9,55.15 "
             style="fill:#fad791" />
          <polygon
             id="polygon5231"
             points="84.1,45.18 84.1,25.89 74.52,21.1 74.52,44.22 74.52,44.22 "
             style="fill:#d9a741" />
          <polygon
             id="polygon5233"
             points="74.52,21.1 74.52,44.22 56.81,45.18 56.81,25.88 56.81,25.88 "
             style="fill:#876929" />
          <polygon
             id="polygon5235"
             points="69.18,29.35 69.18,38.89 50,35.51 50,23.08 50,23.08 "
             style="fill:#d9a741" />
          <polygon
             id="polygon5237"
             points="50.14,35.53 69.18,38.89 60.67,39.82 41.36,37.08 41.36,37.08 "
             style="fill:#624a1e" />
          <polygon
             id="polygon5239"
             points="15.9,45.15 15.9,25.8 25.48,21.08 25.48,44.22 25.48,44.22 "
             style="fill:#876929" />
          <polygon
             id="polygon5241"
             points="25.48,21.08 25.48,44.22 43.19,45.18 43.19,25.88 43.19,25.88 "
             style="fill:#d9a741" />
          <polygon
             id="polygon5243"
             points="30.82,29.35 30.82,38.89 50,35.51 50,23.08 50,23.08 "
             style="fill:#876929" />
          <polygon
             id="polygon5245"
             points="49.86,35.53 30.82,38.89 39.33,39.82 58.64,37.08 58.64,37.08 "
             style="fill:#624a1e" />
          <polygon
             id="polygon5247"
             points="84.1,55.15 84.1,74.44 74.52,79.23 74.52,56.11 74.52,56.11 "
             style="fill:#d9a741" />
          <polygon
             id="polygon5249"
             points="74.52,79.23 74.52,56.11 56.81,55.15 56.81,74.45 56.81,74.45 "
             style="fill:#876929" />
          <polygon
             id="polygon5251"
             points="69.18,70.98 69.18,61.44 50,64.82 50,77.25 50,77.25 "
             style="fill:#d9a741" />
          <polygon
             id="polygon5253"
             points="50.14,64.79 69.18,61.44 60.67,60.51 41.36,63.25 41.36,63.25 "
             style="fill:#fad791" />
          <polygon
             id="polygon5255"
             points="15.9,55.15 15.9,74.44 25.48,79.25 25.48,56.11 25.48,56.11 "
             style="fill:#876929" />
          <polygon
             id="polygon5257"
             points="25.48,79.25 25.48,56.11 43.19,55.15 43.19,74.45 43.19,74.45 "
             style="fill:#d9a741" />
          <polygon
             id="polygon5259"
             points="30.82,70.98 30.82,61.44 50,64.82 50,77.25 50,77.25 "
             style="fill:#876929" />
          <polygon
             id="polygon5261"
             points="49.86,64.79 30.82,61.44 39.33,60.51 58.64,63.25 58.64,63.25 "
             style="fill:#fad791" />
          <polygon
             id="polygon5263"
             points="50,91.16 55.66,88.33 60.2,13.94 50,8.84 39.8,13.94 39.8,86.06 39.8,86.06 "
             style="fill:#876929" />
          <polygon
             id="polygon5265"
             points="50,91.16 50,8.84 60.2,13.94 60.2,86.06 60.2,86.06 "
             style="fill:#d9a741" />
        </g>
        <text
           xml:space="preserve"
           style="font-style:normal;font-weight:normal;font-size:12.5px;line-height:125%;font-family:Sans;letter-spacing:0px;word-spacing:0px;fill:#000000;fill-opacity:1;stroke:none;stroke-width:1px;stroke-linecap:butt;stroke-linejoin:miter;stroke-opacity:1"
           x="492.50208"
           y="432.36221"
           id="text5337"
           sodipodi:linespacing="125%"><tspan
             sodipodi:role="line"
             id="tspan5339"
             x="492.50208"
             y="432.36221">API gateway</tspan></text>
      </g>
      <g
         transform="translate(253,-191)"
         id="g5378">
        <g
           id="g5113"
           transform="translate(607.02,447.0272)">
          <path
             id="path5088"
             d="m 60.7,73.13 0,0 a 7.85,7.85 0 0 1 6.89,-7.47 l 0,-34 -40.22,0 0,44.34 33.33,0 0,-2.87 z"
             class="cls-1"
             inkscape:connector-curvature="0"
             style="fill:#4b612c" />
          <path
             id="path5090"
             d="m 60.65,71 0,0 a 7.85,7.85 0 0 1 6.94,-7.48 l 0,-33.85 -40.22,0 0,44.18 33.28,0 0,-2.85 z"
             class="cls-2"
             inkscape:connector-curvature="0"
             style="fill:#759c3e" />
          <path
             id="path5092"
             d="m 74.59,77.44 0,-4.62"
             class="cls-1"
             inkscape:connector-curvature="0"
             style="fill:#4b612c" />
          <path
             id="path5094"
             d="m 74.59,75.28 0,-4.63"
             class="cls-2"
             inkscape:connector-curvature="0"
             style="fill:#759c3e" />
          <polygon
             id="polygon5096"
             points="66.69,24.75 66.69,26.89 27.89,26.89 27.89,24.75 47.29,19.51 66.69,24.75 "
             class="cls-1"
             style="fill:#4b612c" />
          <polygon
             id="polygon5098"
             points="61.21,19.23 33.78,19.23 27.89,24.75 28.31,24.75 66.69,24.75 61.21,19.23 "
             class="cls-2"
             style="fill:#759c3e" />
          <rect
             id="rect5100"
             height="2.8099999"
             width="13.76"
             y="56.540001"
             x="40.599998"
             class="cls-3"
             style="fill:#ffffff" />
          <rect
             id="rect5102"
             height="2.8099999"
             width="13.76"
             y="50.150002"
             x="40.599998"
             class="cls-3"
             style="fill:#ffffff" />
          <rect
             id="rect5104"
             height="2.8099999"
             width="13.76"
             y="43.759998"
             x="40.599998"
             class="cls-3"
             style="fill:#ffffff" />
          <path
             id="path5106"
             d="m 35.29,37.37 0,28.37 24.4,0 0,-28.37 z m 21.59,25.56 -18.79,0 0,-22.75 18.79,0 z"
             class="cls-3"
             inkscape:connector-curvature="0"
             style="fill:#ffffff" />
        </g>
        <text
           xml:space="preserve"
           style="font-style:normal;font-weight:normal;font-size:12.5px;line-height:125%;font-family:Sans;text-align:center;letter-spacing:0px;word-spacing:0px;text-anchor:middle;fill:#000000;fill-opacity:1;stroke:none;stroke-width:1px;stroke-linecap:butt;stroke-linejoin:miter;stroke-opacity:1"
           x="657.59412"
           y="538.36218"
           id="text5372"
           sodipodi:linespacing="125%"><tspan
             sodipodi:role="line"
             id="tspan5374"
             x="657.59412"
             y="538.36218">Systems Manager</tspan><tspan
             sodipodi:role="line"
             x="657.59412"
             y="553.98718"
             id="tspan5376">Parameter</tspan></text>
      </g>
      <g
         transform="translate(99,-1)"
         id="g5529">
        <g
           id="g4647"
           transform="translate(755.995,115.3622)">
          <polygon
             id="polygon4620"
             points="15.91,74.12 20.25,76.29 27.92,50.04 20.25,23.71 15.91,25.88 15.91,74.12 "
             class="cls-1"
             style="fill:#9d5025" />
          <polygon
             id="polygon4622"
             points="28.65,74.32 28.65,25.71 28.65,25.71 20.25,23.74 20.25,76.29 "
             class="cls-2"
             style="fill:#f58536" />
          <polygon
             id="polygon4624"
             points="25.47,21.1 31.84,17.91 39.79,50.04 31.84,82.09 25.47,78.9 25.47,21.1 "
             class="cls-1"
             style="fill:#9d5025" />
          <polygon
             id="polygon4626"
             points="44.89,22.08 44.89,77.81 44.89,77.81 31.84,81.97 31.84,17.91 "
             class="cls-2"
             style="fill:#f58536" />
          <polygon
             id="polygon4628"
             points="74.52,68.83 74.52,29.17 74.52,29.17 79.74,29.17 79.74,69.12 "
             class="cls-1"
             style="fill:#9d5025" />
          <polygon
             id="polygon4630"
             points="54.27,29.75 60.13,26.73 79.33,29.17 79.9,34.28 74.64,35.02 54.27,29.75 "
             class="cls-3"
             style="fill:#6b3a19" />
          <polygon
             id="polygon4632"
             points="74.81,64.98 54.44,70.25 54.44,70.25 60.29,73.27 80.06,65.71 "
             class="cls-4"
             style="fill:#fbbf93" />
          <polygon
             id="polygon4634"
             points="55.92,38.22 55.92,61.77 55.92,61.77 66.37,63.17 66.37,36.83 "
             class="cls-1"
             style="fill:#9d5025" />
          <polygon
             id="polygon4636"
             points="39.79,86.06 49.99,91.16 58.75,49.94 49.99,8.84 39.79,13.94 39.79,86.06 "
             class="cls-1"
             style="fill:#9d5025" />
          <path
             id="path4638"
             d="m 50,8.84 0,82.32 34.1,-17.05 0,-48.22 z m 29.74,56.93 -19.55,5.87 0,-43.28 19.54,5.86 z"
             class="cls-2"
             inkscape:connector-curvature="0"
             style="fill:#f58536" />
          <polygon
             id="polygon4640"
             points="66.37,36.83 66.37,63.25 77.24,50.04 66.37,36.83 "
             class="cls-2"
             style="fill:#f58536" />
        </g>
        <text
           xml:space="preserve"
           style="font-style:normal;font-weight:normal;font-size:12.5px;line-height:125%;font-family:Sans;letter-spacing:0px;word-spacing:0px;fill:#000000;fill-opacity:1;stroke:none;stroke-width:1px;stroke-linecap:butt;stroke-linejoin:miter;stroke-opacity:1"
           x="780.78638"
           y="224.16418"
           id="text5525"
           sodipodi:linespacing="125%"><tspan
             sodipodi:role="line"
             id="tspan5527"
             x="780.78638"
             y="224.16418">Lambda</tspan></text>
      </g>
      <text
         sodipodi:linespacing="125%"
         id="text5545"
         y="37.1642"
         x="786.46179"
         style="font-style:normal;font-weight:normal;font-size:12.5px;line-height:125%;font-family:Sans;letter-spacing:0px;word-spacing:0px;fill:#000000;fill-opacity:1;stroke:none;stroke-width:1px;stroke-linecap:butt;stroke-linejoin:miter;stroke-opacity:1"
         xml:space="preserve"><tspan
           y="37.1642"
           x="786.46179"
           id="tspan5547"
           sodipodi:role="line">Authorizer</tspan></text>
      <path
         sodipodi:nodetypes="cc"
         inkscape:connector-curvature="0"
         id="path5549"
         d="m 821.46178,167.1642 36,0"
         style="fill:none;fill-rule:evenodd;stroke:#000000;stroke-width:1px;stroke-linecap:butt;stroke-linejoin:miter;stroke-opacity:1;marker-end:url(#Arrow1Lend)" />
      <path
         style="fill:none;fill-rule:evenodd;stroke:#000000;stroke-width:1px;stroke-linecap:butt;stroke-linejoin:miter;stroke-opacity:1;marker-end:url(#marker5889)"
         d="m 907.37181,230.25421 0,36"
         id="path5887"
         inkscape:connector-curvature="0"
         sodipodi:nodetypes="cc" />
      <path
         style="fill:none;fill-rule:evenodd;stroke:#000000;stroke-width:1px;stroke-linecap:butt;stroke-linejoin:miter;stroke-opacity:1;marker-end:url(#marker9260)"
         d="m 953.46179,164.1642 36,0"
         id="path9258"
         inkscape:connector-curvature="0"
         sodipodi:nodetypes="cc" />
      <g
         id="g9227"
         transform="translate(-2.0000001,1.0000001)">
        <g
           transform="translate(987.47748,113.36218)"
           id="g9140">
          <polygon
             style="fill:#692f56"
             points="37.87,58.58 37.87,58.58 50,60.06 61.21,50.87 50,39.92 37.87,41.42 "
             id="polygon9142" />
          <polygon
             style="fill:#692f56"
             points="71.41,24.92 71.41,24.92 78.3,23.17 83.37,44.64 78.3,72.95 71.41,71.94 "
             id="polygon9144" />
          <polygon
             style="fill:#ad688b"
             points="83.96,74.02 83.96,26 78.3,23.17 78.3,70.96 78.3,70.96 "
             id="polygon9146" />
          <polygon
             style="fill:#cfb2c1"
             points="78.3,66.11 50,91 42.43,72.33 71.41,65.11 71.41,65.11 "
             id="polygon9148" />
          <polygon
             style="fill:#ad688b"
             points="21.7,76.83 17.79,27.96 28.59,29.66 28.59,75.08 28.59,75.08 "
             id="polygon9150" />
          <polygon
             style="fill:#512843"
             points="21.7,33.89 50,9 57.57,27.67 28.59,34.89 28.59,34.89 "
             id="polygon9152" />
          <polygon
             style="fill:#cfb2c1"
             points="39.24,67.76 31.92,69.16 50.04,90.22 57.57,72.33 57.57,72.33 "
             id="polygon9154" />
          <polygon
             style="fill:#512843"
             points="49.97,9.02 68.08,30.84 60.76,32.24 42.43,27.67 42.43,27.67 "
             id="polygon9156" />
          <polygon
             style="fill:#ad688b"
             points="50,60.06 50,39.92 62.13,41.42 62.13,58.58 62.13,58.58 "
             id="polygon9158" />
          <polygon
             style="fill:#ad688b"
             points="83.96,74.02 83.96,74.02 50,91 50,74.6 80.17,65.55 82.22,66.16 "
             id="polygon9160" />
          <polygon
             style="fill:#692f56"
             points="50,74.59 50,90.98 31.92,81.94 31.92,69.16 31.92,69.16 "
             id="polygon9162" />
          <polygon
             style="fill:#ad688b"
             points="50,25.41 50,9.02 68.08,18.05 68.08,30.84 68.08,30.84 "
             id="polygon9164" />
          <polygon
             style="fill:#692f56"
             points="50,9 50,25.4 16.04,35.58 16.04,25.98 16.04,25.98 "
             id="polygon9166" />
          <polygon
             style="fill:#692f56"
             points="16.04,25.98 16.04,74 21.7,76.83 21.7,29.62 21.7,29.62 "
             id="polygon9168" />
        </g>
        <text
           sodipodi:linespacing="125%"
           id="text9191"
           y="220.75075"
           x="1013.332"
           style="font-style:normal;font-weight:normal;font-size:12.5px;line-height:125%;font-family:Sans;letter-spacing:0px;word-spacing:0px;fill:#000000;fill-opacity:1;stroke:none;stroke-width:1px;stroke-linecap:butt;stroke-linejoin:miter;stroke-opacity:1"
           xml:space="preserve"><tspan
             y="220.75075"
             x="1013.332"
             id="tspan9193"
             sodipodi:role="line">Cognito</tspan></text>
      </g>
      <g
         id="g9647"
         transform="translate(986.47748,254.36218)">
        <polygon
           id="polygon9630"
           points="22.75,22.47 32.95,25.3 30.3,34.58 30.3,34.58 22.75,33.44 "
           class="cls-1"
           style="fill:#759c3e" />
        <polygon
           id="polygon9632"
           points="15.9,25.89 22.75,22.47 30.82,35.99 30.82,35.99 15.9,37.33 "
           class="cls-2"
           style="fill:#4b612c" />
        <polygon
           id="polygon9634"
           points="77.26,22.47 67.05,25.3 69.71,34.58 69.71,34.58 77.26,33.44 "
           class="cls-2"
           style="fill:#4b612c" />
        <polygon
           id="polygon9636"
           points="84.1,25.89 77.26,22.47 69.18,35.99 69.18,35.99 84.1,37.33 "
           class="cls-1"
           style="fill:#759c3e" />
        <polygon
           id="polygon9638"
           points="64.13,73.5 64.13,24.11 50,8.84 35.59,16.04 35.59,16.04 27.78,31.97 27.78,31.97 15.9,35.53 15.9,45.7 29.66,75.24 50,91.16 "
           class="cls-2"
           style="fill:#4b612c" />
        <polygon
           id="polygon9640"
           points="50,74.7 50,91.16 70.34,75.24 84.1,45.7 84.1,45.7 84.1,35.53 72.22,31.97 72.22,31.97 64.41,16.04 50,8.84 50,25.3 "
           class="cls-1"
           style="fill:#759c3e" />
      </g>
      <text
         xml:space="preserve"
         style="font-style:normal;font-weight:normal;font-size:12.5px;line-height:125%;font-family:Sans;letter-spacing:0px;word-spacing:0px;fill:#000000;fill-opacity:1;stroke:none;stroke-width:1px;stroke-linecap:butt;stroke-linejoin:miter;stroke-opacity:1"
         x="1022.7598"
         y="362.75076"
         id="text9655"
         sodipodi:linespacing="125%"><tspan
           sodipodi:role="line"
           id="tspan9657"
           x="1022.7598"
           y="362.75076">KMS</tspan></text>
      <path
         sodipodi:nodetypes="cc"
         inkscape:connector-curvature="0"
         id="path9671"
         d="m 951.46179,306.16421 36,0"
         style="fill:none;fill-rule:evenodd;stroke:#000000;stroke-width:1px;stroke-linecap:butt;stroke-linejoin:miter;stroke-opacity:1;marker-end:url(#marker9673)" />
    </g>
    <g
       id="ex"
       transform="translate(40,234)">
      <rect
         y="42.164207"
         x="369.46179"
         height="216"
         width="174"
         id="rect6400"
         style="fill:none;fill-opacity:1;fill-rule:nonzero;stroke:#000000;stroke-width:1;stroke-linecap:round;stroke-miterlimit:4;stroke-dasharray:none;stroke-opacity:1" />
      <g
         transform="translate(352,-199)"
         id="g5398">
        <g
           id="g4793"
           transform="translate(56,316.3622)">
          <polygon
             id="polygon4752"
             points="24.12,77.94 15.94,57.01 30.86,56.1 39.74,56.97 39.74,56.97 "
             class="cls-1"
             style="fill:#fbbf93" />
          <polygon
             id="polygon4754"
             points="75.88,78.06 83.9,57.03 69.14,56.1 60.1,56.97 60.1,56.97 "
             class="cls-1"
             style="fill:#fbbf93" />
          <polygon
             id="polygon4756"
             points="24.12,21.94 15.94,42.99 30.99,43.89 39.74,42.97 39.74,42.97 "
             class="cls-2"
             style="fill:#6b3a19" />
          <polygon
             id="polygon4758"
             points="75.88,21.94 84.06,42.99 69.14,43.9 60.1,42.97 60.1,42.97 "
             class="cls-2"
             style="fill:#6b3a19" />
          <polygon
             id="polygon4760"
             points="75.88,41.8 75.88,21.94 60.1,26.02 60.1,42.97 60.1,42.97 "
             class="cls-3"
             style="fill:#9d5025" />
          <polygon
             id="polygon4762"
             points="75.88,41.8 75.88,21.94 84.06,26.03 84.06,42.99 84.06,42.99 "
             class="cls-4"
             style="fill:#f58536" />
          <polygon
             id="polygon4764"
             points="75.88,58.2 75.88,78.06 60.1,73.92 60.1,56.97 60.1,56.97 "
             class="cls-3"
             style="fill:#9d5025" />
          <polygon
             id="polygon4766"
             points="75.88,58.2 75.88,78.06 83.9,74.05 83.9,57.03 83.9,57.03 "
             class="cls-4"
             style="fill:#f58536" />
          <polygon
             id="polygon4768"
             points="24.12,41.8 24.12,21.94 39.74,26.02 39.74,42.97 39.74,42.97 "
             class="cls-4"
             style="fill:#f58536" />
          <polygon
             id="polygon4770"
             points="24.12,41.8 24.12,21.94 15.94,26.03 15.94,42.99 15.94,42.99 "
             class="cls-3"
             style="fill:#9d5025" />
          <polygon
             id="polygon4772"
             points="24.12,58.2 24.12,78.06 39.74,73.92 39.74,56.97 39.74,56.97 "
             class="cls-4"
             style="fill:#f58536" />
          <polygon
             id="polygon4774"
             points="24.12,58.2 24.12,78.06 15.94,73.97 15.94,57.01 15.94,57.01 "
             class="cls-3"
             style="fill:#9d5025" />
          <polygon
             id="polygon4776"
             points="50,57.98 33.58,59.57 50,91 66.26,59.59 66.26,59.59 "
             class="cls-1"
             style="fill:#fbbf93" />
          <polygon
             id="polygon4778"
             points="50,42.02 33.58,40.43 50,9 66.26,40.41 66.26,40.41 "
             class="cls-2"
             style="fill:#6b3a19" />
          <polygon
             id="polygon4780"
             points="50,38.05 50,9 66.26,17.13 66.26,40.41 66.26,40.41 "
             class="cls-4"
             style="fill:#f58536" />
          <polygon
             id="polygon4782"
             points="50,38.05 50,9 33.58,17.21 33.58,40.43 33.58,40.43 "
             class="cls-3"
             style="fill:#9d5025" />
          <polygon
             id="polygon4784"
             points="50,61.95 50,91 66.26,82.87 66.26,59.59 66.26,59.59 "
             class="cls-4"
             style="fill:#f58536" />
          <polygon
             id="polygon4786"
             points="50,61.95 50,91 33.58,82.79 33.58,59.57 33.58,59.57 "
             class="cls-3"
             style="fill:#9d5025" />
        </g>
        <text
           xml:space="preserve"
           style="font-style:normal;font-weight:normal;font-size:12.5px;line-height:125%;font-family:Sans;letter-spacing:0px;word-spacing:0px;fill:#000000;fill-opacity:1;stroke:none;stroke-width:1px;stroke-linecap:butt;stroke-linejoin:miter;stroke-opacity:1"
           x="72.110229"
           y="425.36221"
           id="text5394"
           sodipodi:linespacing="125%"><tspan
             sodipodi:role="line"
             id="tspan5396"
             x="72.110229"
             y="425.36221">CloudFront</tspan></text>
      </g>
      <use
         height="100%"
         width="100%"
         transform="translate(-325,-1)"
         id="use5871"
         xlink:href="#g5319"
         y="0"
         x="0" />
      <text
         sodipodi:linespacing="125%"
         id="text6403"
         y="35.1642"
         x="460.46179"
         style="font-style:normal;font-weight:normal;font-size:12.5px;line-height:125%;font-family:Sans;letter-spacing:0px;word-spacing:0px;fill:#000000;fill-opacity:1;stroke:none;stroke-width:1px;stroke-linecap:butt;stroke-linejoin:miter;stroke-opacity:1"
         xml:space="preserve"><tspan
           y="35.1642"
           x="460.46179"
           id="tspan6405"
           sodipodi:role="line">Example</tspan></text>
    </g>
    <g
       id="validator"
       transform="translate(309,395)">
      <rect
         y="42.164204"
         x="384.46179"
         height="213"
         width="173"
         id="rect6383"
         style="fill:none;fill-opacity:1;fill-rule:nonzero;stroke:#000000;stroke-width:1;stroke-linecap:round;stroke-miterlimit:4;stroke-dasharray:none;stroke-opacity:1" />
      <use
         height="100%"
         width="100%"
         transform="translate(-311,-1)"
         id="use5873"
         xlink:href="#g5319"
         y="0"
         x="0" />
      <text
         sodipodi:linespacing="125%"
         id="text6386"
         y="37.1642"
         x="477.46179"
         style="font-style:normal;font-weight:normal;font-size:12.5px;line-height:125%;font-family:Sans;letter-spacing:0px;word-spacing:0px;fill:#000000;fill-opacity:1;stroke:none;stroke-width:1px;stroke-linecap:butt;stroke-linejoin:miter;stroke-opacity:1"
         xml:space="preserve"><tspan
           y="37.1642"
           x="477.46179"
           id="tspan6388"
           sodipodi:role="line">Validator</tspan></text>
      <g
         id="g7000"
         transform="translate(-360.00005,6.9999968)">
        <g
           transform="translate(778.23011,115.3622)"
           id="g7002">
          <polygon
             style="fill:#9d5025"
             class="cls-1"
             points="15.91,74.12 15.91,74.12 20.25,76.29 27.92,50.04 20.25,23.71 15.91,25.88 "
             id="polygon7004" />
          <polygon
             style="fill:#f58536"
             class="cls-2"
             points="28.65,74.32 28.65,25.71 28.65,25.71 20.25,23.74 20.25,76.29 "
             id="polygon7006" />
          <polygon
             style="fill:#9d5025"
             class="cls-1"
             points="25.47,21.1 25.47,21.1 31.84,17.91 39.79,50.04 31.84,82.09 25.47,78.9 "
             id="polygon7008" />
          <polygon
             style="fill:#f58536"
             class="cls-2"
             points="44.89,22.08 44.89,77.81 44.89,77.81 31.84,81.97 31.84,17.91 "
             id="polygon7010" />
          <polygon
             style="fill:#9d5025"
             class="cls-1"
             points="74.52,68.83 74.52,29.17 74.52,29.17 79.74,29.17 79.74,69.12 "
             id="polygon7012" />
          <polygon
             style="fill:#6b3a19"
             class="cls-3"
             points="54.27,29.75 54.27,29.75 60.13,26.73 79.33,29.17 79.9,34.28 74.64,35.02 "
             id="polygon7014" />
          <polygon
             style="fill:#fbbf93"
             class="cls-4"
             points="74.81,64.98 54.44,70.25 54.44,70.25 60.29,73.27 80.06,65.71 "
             id="polygon7016" />
          <polygon
             style="fill:#9d5025"
             class="cls-1"
             points="55.92,38.22 55.92,61.77 55.92,61.77 66.37,63.17 66.37,36.83 "
             id="polygon7018" />
          <polygon
             style="fill:#9d5025"
             class="cls-1"
             points="39.79,86.06 39.79,86.06 49.99,91.16 58.75,49.94 49.99,8.84 39.79,13.94 "
             id="polygon7020" />
          <path
             style="fill:#f58536"
             inkscape:connector-curvature="0"
             class="cls-2"
             d="m 50,8.84 0,82.32 34.1,-17.05 0,-48.22 z m 29.74,56.93 -19.55,5.87 0,-43.28 19.54,5.86 z"
             id="path7022" />
          <polygon
             style="fill:#f58536"
             class="cls-2"
             points="66.37,63.25 77.24,50.04 66.37,36.83 66.37,36.83 "
             id="polygon7024" />
        </g>
        <text
           sodipodi:linespacing="125%"
           id="text7026"
           y="224.16418"
           x="780.78638"
           style="font-style:normal;font-weight:normal;font-size:12.5px;line-height:125%;font-family:Sans;letter-spacing:0px;word-spacing:0px;fill:#000000;fill-opacity:1;stroke:none;stroke-width:1px;stroke-linecap:butt;stroke-linejoin:miter;stroke-opacity:1"
           xml:space="preserve"><tspan
             y="224.16418"
             x="780.78638"
             id="tspan7028"
             sodipodi:role="line">Lambda@Edge</tspan></text>
      </g>
    </g>
    <g
       id="browser"
       transform="translate(-26.000003,-6.0000004)">
      <g
         id="g8109"
         inkscape:label="ink_ext_XXXXXX"
         transform="matrix(1.2500001,0,0,-1.2500001,257.04772,467.12686)">
        <g
           id="g8111"
           transform="scale(0.1,0.1)">
          <path
             d="m 733.73,280.09 c -0.039,-9.348 -7.531,-16.887 -16.945,-16.887 l -176.133,0 c -9.414,0 -17.019,7.539 -17.058,16.887 l -301.555,0 0,-16.887 c 0,-23.34 18.984,-42.285 42.348,-42.285 l 471.109,0 c 23.496,0 42.465,18.945 42.465,42.285 l 0,16.887 -44.231,0"
             style="fill:#777779;fill-opacity:1;fill-rule:nonzero;stroke:none"
             id="path8113"
             inkscape:connector-curvature="0" />
          <path
             d="m 759.375,481.25 -27.273,-29.98 c 0,-10.606 -8.633,-19.219 -19.336,-19.219 l -426.133,0 c -10.57,0 -19.223,8.613 -19.223,19.219 l -23.035,29.98 -21.941,0 0,-29.98 c 0,-35.176 28.765,-63.868 64.199,-63.868 l 426.133,0 c 35.425,0 64.336,28.692 64.336,63.868 l 0,29.98 -17.727,0"
             style="fill:#777779;fill-opacity:1;fill-rule:nonzero;stroke:none"
             id="path8115"
             inkscape:connector-curvature="0" />
          <path
             d="m 716.785,287.996 c 9.438,0 16.953,7.578 16.953,16.953 0,9.223 -7.515,16.86 -16.953,16.86 l -176.133,0 c -9.429,0 -17.066,-7.637 -17.066,-16.86 0,-9.375 7.637,-16.953 17.066,-16.953 l 176.133,0 m 18.711,76.059 c 23.496,0 42.465,-18.813 42.465,-42.153 l 0,-33.906 c 0,-23.34 -18.969,-42.281 -42.465,-42.281 l -471.109,0 c -23.364,0 -42.348,18.941 -42.348,42.281 l 0,33.906 c 0,23.34 18.984,42.153 42.348,42.153 l 471.109,0"
             style="fill:#d4d4d2;fill-opacity:1;fill-rule:nonzero;stroke:none"
             id="path8117"
             inkscape:connector-curvature="0" />
          <path
             d="m 732.102,476.063 0,238.578 c 0,10.586 -8.633,19.175 -19.336,19.175 l -426.133,0 c -10.57,0 -19.223,-8.589 -19.223,-19.175 l 0,-238.578 c 0,-10.602 8.653,-19.215 19.223,-19.215 l 426.133,0 c 10.703,0 19.336,8.613 19.336,19.215 m -19.336,302.421 c 35.425,0 64.336,-28.687 64.336,-63.843 l 0,-238.578 c 0,-35.172 -28.911,-63.868 -64.336,-63.868 l -426.133,0 c -35.434,0 -64.199,28.696 -64.199,63.868 l 0,238.578 c 0,35.156 28.765,63.843 64.199,63.843 l 426.133,0"
             style="fill:#d4d4d2;fill-opacity:1;fill-rule:nonzero;stroke:none"
             id="path8119"
             inkscape:connector-curvature="0" />
        </g>
      </g>
      <text
         sodipodi:linespacing="125%"
         id="text8846"
         y="456.66418"
         x="293.96179"
         style="font-style:normal;font-weight:normal;font-size:12.5px;line-height:125%;font-family:Sans;letter-spacing:0px;word-spacing:0px;fill:#000000;fill-opacity:1;stroke:none;stroke-width:1px;stroke-linecap:butt;stroke-linejoin:miter;stroke-opacity:1"
         xml:space="preserve"><tspan
           y="456.66418"
           x="293.96179"
           id="tspan8848"
           sodipodi:role="line">browser</tspan></text>
    </g>
    <path
       style="fill:none;fill-rule:evenodd;stroke:#000000;stroke-width:1px;stroke-linecap:butt;stroke-linejoin:miter;stroke-opacity:1;marker-end:url(#marker6683)"
       d="m 485.46178,91.1642 -20,145"
       id="path6637"
       inkscape:connector-curvature="0" />
    <path
       style="fill:none;fill-rule:evenodd;stroke:#000000;stroke-width:1px;stroke-linecap:butt;stroke-linejoin:miter;stroke-opacity:1;marker-end:url(#marker6723)"
       d="m 539.46178,29.1642 151,1"
       id="path6639"
       inkscape:connector-curvature="0" />
    <path
       style="fill:none;fill-rule:evenodd;stroke:#000000;stroke-width:1px;stroke-linecap:butt;stroke-linejoin:miter;stroke-opacity:1;marker-end:url(#marker6649)"
       d="m 538.46178,57.1642 155,363"
       id="path6641"
       inkscape:connector-curvature="0" />
    <path
       style="fill:none;fill-rule:evenodd;stroke:#000000;stroke-width:1px;stroke-linecap:butt;stroke-linejoin:miter;stroke-opacity:1;marker-end:url(#marker6837)"
       d="m 549.46178,397.1642 170,-227"
       id="path6775"
       inkscape:connector-curvature="0" />
    <path
       style="fill:none;fill-rule:evenodd;stroke:#000000;stroke-width:1px;stroke-linecap:butt;stroke-linejoin:miter;stroke-opacity:1;marker-end:url(#marker6785)"
       d="m 549.46178,407.1642 181,166"
       id="path6777"
       inkscape:connector-curvature="0" />
    <path
       style="fill:none;fill-rule:evenodd;stroke:#000000;stroke-width:1px;stroke-linecap:butt;stroke-linejoin:miter;stroke-opacity:1;marker-end:url(#marker6909)"
       d="m 812.96179,535.66418 85,-159"
       id="path6901"
       inkscape:connector-curvature="0" />
    <path
       style="fill:none;fill-rule:evenodd;stroke:#000000;stroke-width:1px;stroke-linecap:butt;stroke-linejoin:miter;stroke-opacity:1;marker-end:url(#marker8770)"
       d="m 338.96179,397.66418 105,0"
       id="path8762"
       inkscape:connector-curvature="0" />
  </g>
</svg>
